<?xml version="1.0" encoding="UTF-8"?>
<svg width="12px" height="412px" viewBox="0 0 12 412" version="1.1" xmlns="http://www.w3.org/2000/svg" xmlns:xlink="http://www.w3.org/1999/xlink">
    <!-- Generator: Sketch 51 (57462) - http://www.bohemiancoding.com/sketch -->
    <title>摩厉以须 登峰造极</title>
    <desc>Created with Sketch.</desc>
    <defs></defs>
    <g id="Welcome" stroke="none" stroke-width="1" fill="none" fill-rule="evenodd">
        <g id="Desktop-HD" transform="translate(-320.000000, -94.000000)" fill="#C6AB76">
            <path d="M323.12,101.168 L326.456,101.168 L326.456,100.376 C325.484,100.412 324.44,100.436 323.336,100.436 L323.132,99.836 C325.952,99.824 328.292,99.68 330.14,99.404 L330.512,100.052 C329.588,100.172 328.52,100.268 327.296,100.34 L327.296,101.168 L330.656,101.168 L330.656,101.84 L327.296,101.84 L327.296,102.632 L331.328,102.632 L331.328,103.328 L327.296,103.328 L327.296,104.348 C327.296,104.924 326.972,105.224 326.324,105.224 L324.956,105.224 L324.8,104.492 C325.232,104.516 325.652,104.54 326.06,104.54 C326.324,104.54 326.456,104.408 326.456,104.156 L326.456,103.328 L322.496,103.328 L322.496,102.632 L326.456,102.632 L326.456,101.84 L323.12,101.84 L323.12,101.168 Z M322.808,96.632 L324.416,96.632 L324.416,95.744 L322.244,95.744 L322.244,100.1 C322.208,102.176 321.836,103.844 321.116,105.092 L320.48,104.528 C321.08,103.46 321.392,101.984 321.416,100.1 L321.416,95 L325.916,95 C325.784,94.736 325.64,94.484 325.496,94.268 L326.396,94.124 C326.54,94.376 326.672,94.664 326.804,95 L331.028,95 L331.028,95.744 L329.156,95.744 L329.156,96.632 L330.86,96.632 L330.86,97.304 L329.672,97.304 C330.032,97.832 330.584,98.312 331.34,98.72 L330.86,99.344 C330.068,98.72 329.504,98.048 329.168,97.304 L329.156,97.304 L329.156,99.056 L328.4,99.056 L328.4,97.304 L328.364,97.304 C328.04,98.12 327.524,98.792 326.828,99.32 L326.456,98.684 C327.08,98.324 327.56,97.856 327.872,97.304 L326.852,97.304 L326.852,96.632 L328.4,96.632 L328.4,95.744 L325.172,95.744 L325.172,96.632 L326.396,96.632 L326.396,97.304 L325.172,97.304 L325.172,97.604 C325.604,97.796 326.024,98.024 326.456,98.276 L326.096,98.828 C325.748,98.552 325.436,98.324 325.172,98.144 L325.172,99.392 L324.416,99.392 L324.416,97.676 C324.032,98.348 323.492,98.912 322.784,99.368 L322.4,98.732 C323.156,98.36 323.732,97.88 324.116,97.304 L322.808,97.304 L322.808,96.632 Z M323.216,147.232 L330.98,147.232 L330.98,148.048 L326.252,148.048 L326.252,149.464 C326.252,149.596 326.24,149.716 326.24,149.836 L330.236,149.836 C330.224,152.356 330.116,153.868 329.9,154.372 C329.684,154.852 329.312,155.104 328.796,155.104 C328.412,155.104 327.944,155.092 327.404,155.068 L327.188,154.252 C327.752,154.276 328.22,154.3 328.592,154.312 C328.928,154.3 329.132,154.096 329.228,153.7 C329.3,153.316 329.348,152.284 329.372,150.628 L326.168,150.628 C325.904,152.692 325.04,154.228 323.576,155.26 L322.916,154.684 C324.548,153.604 325.388,151.864 325.412,149.464 L325.412,148.048 L323.216,148.048 L323.216,147.232 Z M331.112,144.892 L331.112,145.732 L322.412,145.732 L322.412,149.056 C322.364,151.6 321.944,153.652 321.152,155.188 L320.48,154.588 C321.152,153.268 321.5,151.42 321.536,149.056 L321.536,144.892 L331.112,144.892 Z M324.524,195.504 C325.616,196.764 326.456,197.868 327.032,198.804 L326.3,199.308 C325.688,198.3 324.86,197.184 323.804,195.948 L324.524,195.504 Z M328.652,201.384 C327.86,202.836 326.588,204.072 324.836,205.08 L324.26,204.372 C326.3,203.196 327.656,201.732 328.316,199.956 C328.82,198.456 329.072,196.548 329.084,194.232 L329.984,194.232 C329.984,196.512 329.732,198.432 329.228,200.016 C329.168,200.196 329.108,200.376 329.036,200.556 C330.02,201.804 330.848,203.052 331.52,204.3 L330.86,204.96 C330.296,203.832 329.564,202.644 328.652,201.384 Z M321.548,203.832 L321.26,203.016 C321.476,202.848 321.584,202.632 321.584,202.356 L321.584,194.544 L322.472,194.544 L322.472,202.56 C323.408,202.176 324.332,201.708 325.256,201.156 L325.496,201.996 C324.272,202.704 322.952,203.316 321.548,203.832 Z M325.112,244.712 L331.34,244.712 L331.34,245.552 L328.688,245.552 C328.64,246.008 328.592,246.428 328.52,246.836 L330.932,246.836 L330.932,252.5 L330.092,252.5 L330.092,247.628 L326.372,247.628 L326.372,252.5 L325.532,252.5 L325.532,246.836 L327.632,246.836 C327.716,246.428 327.776,245.996 327.812,245.552 L325.112,245.552 L325.112,244.712 Z M327.8,248.336 L328.652,248.336 L328.652,250.436 C328.616,251.708 328.28,252.728 327.644,253.496 C327.032,254.204 326.024,254.756 324.62,255.152 L324.14,254.384 C325.508,254.024 326.456,253.532 326.996,252.92 C327.5,252.284 327.764,251.456 327.8,250.436 L327.8,248.336 Z M324.056,244.268 L324.596,244.868 C323.684,245.828 322.556,246.644 321.212,247.292 L320.84,246.5 C322.148,245.924 323.216,245.18 324.056,244.268 Z M324.212,247.496 L324.74,248.096 C323.804,249.152 322.64,250.028 321.248,250.724 L320.876,249.932 C322.22,249.308 323.336,248.504 324.212,247.496 Z M324.428,251.108 L324.968,251.72 C323.948,253.028 322.664,254.12 321.128,254.984 L320.732,254.144 C322.22,253.376 323.456,252.368 324.428,251.108 Z M329.24,252.56 C330.128,253.232 330.884,253.892 331.484,254.552 L330.848,255.188 C330.308,254.54 329.576,253.856 328.64,253.124 L329.24,252.56 Z M322.688,349.248 L329.36,349.248 L329.36,352.164 L322.688,352.164 L322.688,349.248 Z M328.496,351.396 L328.496,350.004 L323.552,350.004 L323.552,351.396 L328.496,351.396 Z M323.756,352.428 C324.164,352.872 324.536,353.4 324.872,354.024 L327.248,354.024 C327.62,353.496 327.944,352.944 328.22,352.368 L329.036,352.644 C328.772,353.16 328.484,353.616 328.172,354.024 L331.124,354.024 L331.124,354.852 L320.852,354.852 L320.852,354.024 L323.972,354.024 C323.684,353.568 323.348,353.136 322.94,352.728 L323.756,352.428 Z M321.836,345.84 C322.484,346.296 323.024,346.74 323.48,347.184 C324.032,346.656 324.476,346.068 324.812,345.444 L321.812,345.444 L321.812,344.652 L325.796,344.652 L325.796,345.3 C325.46,346.092 324.992,346.812 324.392,347.448 L328.088,347.448 C327.248,346.608 326.6,345.672 326.144,344.664 L326.852,344.268 C327.068,344.772 327.344,345.252 327.668,345.708 C328.196,345.324 328.64,344.892 329.012,344.412 L329.624,344.952 C329.204,345.468 328.712,345.924 328.148,346.32 C328.412,346.644 328.712,346.944 329.036,347.232 C329.624,346.8 330.116,346.32 330.524,345.792 L331.124,346.332 C330.716,346.86 330.224,347.34 329.66,347.748 C330.26,348.204 330.92,348.624 331.652,348.984 L331.088,349.644 C330.044,349.08 329.144,348.444 328.388,347.736 L328.388,348.24 L324.008,348.24 L324.008,347.832 C323.216,348.552 322.232,349.152 321.056,349.644 L320.54,348.972 C321.428,348.612 322.208,348.18 322.88,347.688 C322.436,347.268 321.896,346.836 321.26,346.392 L321.836,345.84 Z M320.78,395.696 L321.488,395.696 L321.488,402.884 L322.352,402.776 L322.352,394.292 L323.048,394.292 L323.048,402.668 C323.336,402.62 323.624,402.56 323.9,402.512 L323.9,395.696 L324.596,395.696 L324.596,398.456 C325.688,398.24 326.612,397.964 327.38,397.628 C326.924,397.292 326.552,396.944 326.264,396.56 C326.024,396.8 325.784,397.016 325.52,397.232 L324.992,396.608 C325.832,395.984 326.528,395.168 327.068,394.16 L327.836,394.328 C327.692,394.592 327.548,394.856 327.404,395.096 L330.536,395.096 L330.536,395.78 C330.2,396.476 329.672,397.076 328.964,397.592 C329.684,397.892 330.548,398.132 331.532,398.3 L331.232,399.068 C329.984,398.84 328.964,398.516 328.148,398.096 C327.272,398.552 326.204,398.936 324.956,399.224 L324.596,398.552 L324.596,403.88 L323.9,403.88 L323.9,403.268 C323.012,403.436 322.016,403.58 320.912,403.7 L320.576,402.992 C320.708,402.944 320.78,402.86 320.78,402.752 L320.78,395.696 Z M325.304,399.68 L327.704,399.68 L327.704,398.828 L328.556,398.828 L328.556,399.68 L330.92,399.68 L330.92,400.448 L328.556,400.448 L328.556,401.432 L330.656,401.432 L330.656,402.2 L328.556,402.2 L328.556,403.16 L331.316,403.16 L331.316,403.916 L328.556,403.916 L328.556,405.212 L327.704,405.212 L327.704,403.916 L325.004,403.916 L325.004,403.16 L327.704,403.16 L327.704,402.2 L325.52,402.2 L325.52,401.432 L327.704,401.432 L327.704,400.448 L325.304,400.448 L325.304,399.68 Z M328.16,397.208 C328.796,396.812 329.288,396.356 329.624,395.84 L326.9,395.84 L326.756,396.02 C327.092,396.476 327.56,396.872 328.16,397.208 Z M321.524,444.292 C322.34,444.952 323.012,445.612 323.564,446.272 L322.964,446.872 C322.472,446.248 321.8,445.564 320.936,444.844 L321.524,444.292 Z M328.484,454.984 C327.836,454.984 327.116,454.972 326.348,454.96 C325.58,454.948 324.944,454.876 324.464,454.744 C323.996,454.6 323.576,454.3 323.204,453.868 C323.036,453.664 322.88,453.568 322.736,453.568 C322.436,453.568 321.956,454.12 321.284,455.248 L320.636,454.66 C321.284,453.64 321.848,453.016 322.352,452.8 L322.352,449.152 L320.648,449.152 L320.648,448.36 L323.156,448.36 L323.156,452.848 C323.252,452.92 323.348,453.016 323.444,453.124 C323.732,453.472 324.044,453.724 324.38,453.88 C324.752,454.048 325.292,454.144 326.012,454.168 C326.636,454.18 327.428,454.192 328.364,454.192 C328.94,454.192 329.528,454.18 330.128,454.168 C330.716,454.156 331.172,454.144 331.496,454.12 L331.28,454.984 L328.484,454.984 Z M325.58,446.452 C325.376,446.884 325.148,447.292 324.896,447.664 L324.176,447.22 C324.752,446.392 325.184,445.468 325.448,444.46 L326.228,444.628 C326.132,444.988 326.024,445.324 325.904,445.648 L327.428,445.648 L327.428,444.208 L328.256,444.208 L328.256,445.648 L330.716,445.648 L330.716,446.452 L328.256,446.452 L328.256,448.012 L331.34,448.012 L331.34,448.804 L323.996,448.804 L323.996,448.012 L327.428,448.012 L327.428,446.452 L325.58,446.452 Z M325.028,449.764 L330.404,449.764 L330.404,453.136 L325.028,453.136 L325.028,449.764 Z M329.564,452.332 L329.564,450.568 L325.868,450.568 L325.868,452.332 L329.564,452.332 Z M323.3,499.128 L323.3,505.152 L322.424,505.152 L322.424,499.032 C322.028,500.256 321.5,501.36 320.852,502.344 L320.48,501.396 C321.356,500.22 321.98,498.888 322.364,497.376 L320.672,497.376 L320.672,496.548 L322.424,496.548 L322.424,494.208 L323.3,494.208 L323.3,496.548 L324.74,496.548 L324.74,497.376 L323.3,497.376 L323.3,498.168 C323.828,498.756 324.368,499.416 324.92,500.136 L324.404,500.892 C323.972,500.172 323.612,499.584 323.3,499.128 Z M325.832,495.516 L324.464,495.516 L324.464,494.688 L330.092,494.688 L330.092,495.24 C329.852,496.308 329.624,497.232 329.384,498 L330.944,498 L330.944,498.48 C330.692,500.124 330.14,501.516 329.3,502.644 C329.936,503.304 330.668,503.892 331.508,504.42 L330.956,505.152 C330.104,504.6 329.372,503.988 328.748,503.304 C328.028,504.06 327.152,504.684 326.12,505.176 L325.64,504.384 C326.648,503.892 327.488,503.292 328.16,502.584 C327.44,501.624 326.9,500.544 326.528,499.356 C326.228,501.864 325.52,503.784 324.404,505.116 L323.744,504.54 C325.112,502.908 325.808,500.28 325.832,496.68 L325.832,495.516 Z M328.688,501.948 C329.372,501.036 329.84,499.968 330.08,498.756 L328.352,498.756 C328.592,498.024 328.868,496.944 329.18,495.516 L326.684,495.516 L326.684,496.68 C326.684,496.848 326.672,497.004 326.672,497.16 C326.96,499.008 327.632,500.604 328.688,501.948 Z" id="摩厉以须-登峰造极"></path>
        </g>
    </g>
</svg>