<svg xmlns="http://www.w3.org/2000/svg" width="4" height="670.44" viewBox="0 0 4 670.44">
  <metadata><?xpacket begin="﻿" id="W5M0MpCehiHzreSzNTczkc9d"?>
<x:xmpmeta xmlns:x="adobe:ns:meta/" x:xmptk="Adobe XMP Core 5.6-c140 79.160451, 2017/05/06-01:08:21        ">
   <rdf:RDF xmlns:rdf="http://www.w3.org/1999/02/22-rdf-syntax-ns#">
      <rdf:Description rdf:about=""/>
   </rdf:RDF>
</x:xmpmeta>
                                                                                                    
                                                                                                    
                                                                                                    
                                                                                                    
                                                                                                    
                                                                                                    
                                                                                                    
                                                                                                    
                                                                                                    
                                                                                                    
                                                                                                    
                                                                                                    
                                                                                                    
                                                                                                    
                                                                                                    
                                                                                                    
                                                                                                    
                                                                                                    
                                                                                                    
                                                                                                    
                           
<?xpacket end="w"?></metadata>
<defs>
    <style>
      .cls-1 {
        fill: #4b412b;
        fill-rule: evenodd;
      }
    </style>
  </defs>
  <path id="Shape_4_copy_4" data-name="Shape 4 copy 4" class="cls-1" d="M4839.01,1225.97a2.01,2.01,0,1,0-2.01,2.01A2,2,0,0,0,4839.01,1225.97Zm0-9.59a2.01,2.01,0,1,0-2.01,2.01A2.01,2.01,0,0,0,4839.01,1216.38Zm0-9.6a2.01,2.01,0,1,0-2.01,2.01A2.008,2.008,0,0,0,4839.01,1206.78Zm0-9.59a2.01,2.01,0,1,0-2.01,2.01A2.01,2.01,0,0,0,4839.01,1197.19Zm0-9.59a2.01,2.01,0,1,0-2.01,2A2.01,2.01,0,0,0,4839.01,1187.6Zm0-9.6a2.01,2.01,0,1,0-2.01,2.01A2.01,2.01,0,0,0,4839.01,1178Zm0,105.94a2.01,2.01,0,1,0-2.01,2.01A2.01,2.01,0,0,0,4839.01,1283.94Zm0-9.59a2.01,2.01,0,1,0-2.01,2A2.01,2.01,0,0,0,4839.01,1274.35Zm0-9.6a2.01,2.01,0,1,0-2.01,2.01A2,2,0,0,0,4839.01,1264.75Zm0-9.59a2.01,2.01,0,1,0-2.01,2.01A2.01,2.01,0,0,0,4839.01,1255.16Zm0-9.6a2.01,2.01,0,1,0-2.01,2.01A2.008,2.008,0,0,0,4839.01,1245.56Zm0-9.59a2.01,2.01,0,1,0-2.01,2.01A2.01,2.01,0,0,0,4839.01,1235.97Zm0,105.94a2.01,2.01,0,1,0-2.01,2.01A2.01,2.01,0,0,0,4839.01,1341.91Zm0-9.59a2.01,2.01,0,1,0-2.01,2A2.01,2.01,0,0,0,4839.01,1332.32Zm0-9.6a2.01,2.01,0,1,0-2.01,2.01A2.01,2.01,0,0,0,4839.01,1322.72Zm0-9.59a2.01,2.01,0,1,0-2.01,2A2.01,2.01,0,0,0,4839.01,1313.13Zm0-9.6a2.01,2.01,0,1,0-2.01,2.01A2.01,2.01,0,0,0,4839.01,1303.53Zm0-9.59a2.01,2.01,0,1,0-2.01,2.01A2.01,2.01,0,0,0,4839.01,1293.94Zm0,105.94a2.01,2.01,0,1,0-2.01,2A2.01,2.01,0,0,0,4839.01,1399.88Zm0-9.6a2.01,2.01,0,1,0-2.01,2.01A2,2,0,0,0,4839.01,1390.28Zm0-9.59a2.01,2.01,0,1,0-2.01,2.01A2.01,2.01,0,0,0,4839.01,1380.69Zm0-9.6a2.01,2.01,0,1,0-2.01,2.01A2.008,2.008,0,0,0,4839.01,1371.09Zm0-9.59a2.01,2.01,0,1,0-2.01,2.01A2.01,2.01,0,0,0,4839.01,1361.5Zm0-9.59a2.01,2.01,0,1,0-2.01,2A2.01,2.01,0,0,0,4839.01,1351.91Zm0,106.94a2.01,2.01,0,1,0-2.01,2A2.01,2.01,0,0,0,4839.01,1458.85Zm0-9.6a2.01,2.01,0,1,0-2.01,2.01A2.01,2.01,0,0,0,4839.01,1449.25Zm0-9.59a2.01,2.01,0,1,0-2.01,2A2.01,2.01,0,0,0,4839.01,1439.66Zm0-9.6a2.01,2.01,0,1,0-2.01,2.01A2,2,0,0,0,4839.01,1430.06Zm0-9.59a2.01,2.01,0,1,0-2.01,2.01A2.01,2.01,0,0,0,4839.01,1420.47Zm0-9.6a2.01,2.01,0,1,0-2.01,2.01A2,2,0,0,0,4839.01,1410.87Zm0,105.94a2.01,2.01,0,1,0-2.01,2.01A2,2,0,0,0,4839.01,1516.81Zm0-9.59a2.01,2.01,0,1,0-2.01,2.01A2.01,2.01,0,0,0,4839.01,1507.22Zm0-9.6a2.01,2.01,0,1,0-2.01,2.01A2.008,2.008,0,0,0,4839.01,1497.62Zm0-9.59a2.01,2.01,0,1,0-2.01,2.01A2.01,2.01,0,0,0,4839.01,1488.03Zm0-9.59a2.01,2.01,0,1,0-2.01,2A2.01,2.01,0,0,0,4839.01,1478.44Zm0-9.6a2.01,2.01,0,1,0-2.01,2.01A2.01,2.01,0,0,0,4839.01,1468.84Zm0,105.94a2.01,2.01,0,1,0-2.01,2.01A2.01,2.01,0,0,0,4839.01,1574.78Zm0-9.59a2.01,2.01,0,1,0-2.01,2A2.01,2.01,0,0,0,4839.01,1565.19Zm0-9.6a2.01,2.01,0,1,0-2.01,2.01A2,2,0,0,0,4839.01,1555.59Zm0-9.59a2.01,2.01,0,1,0-2.01,2.01A2.01,2.01,0,0,0,4839.01,1546Zm0-9.6a2.01,2.01,0,1,0-2.01,2.01A2.008,2.008,0,0,0,4839.01,1536.4Zm0-9.59a2.01,2.01,0,1,0-2.01,2.01A2.01,2.01,0,0,0,4839.01,1526.81Zm0,105.94a2.01,2.01,0,1,0-2.01,2.01A2.01,2.01,0,0,0,4839.01,1632.75Zm0-9.59a2.01,2.01,0,1,0-2.01,2A2.01,2.01,0,0,0,4839.01,1623.16Zm0-9.6a2.01,2.01,0,1,0-2.01,2.01A2.01,2.01,0,0,0,4839.01,1613.56Zm0-9.59a2.01,2.01,0,1,0-2.01,2A2.01,2.01,0,0,0,4839.01,1603.97Zm0-9.6a2.01,2.01,0,1,0-2.01,2.01A2,2,0,0,0,4839.01,1594.37Zm0-9.59a2.01,2.01,0,1,0-2.01,2.01A2.01,2.01,0,0,0,4839.01,1584.78Zm0,104.94a2.01,2.01,0,1,0-2.01,2.01A2.01,2.01,0,0,0,4839.01,1689.72Zm0-9.6a2.01,2.01,0,1,0-2.01,2.01A2.008,2.008,0,0,0,4839.01,1680.12Zm0-9.59a2.01,2.01,0,1,0-2.01,2.01A2.01,2.01,0,0,0,4839.01,1670.53Zm0-9.59a2.01,2.01,0,1,0-2.01,2A2.01,2.01,0,0,0,4839.01,1660.94Zm0-9.6a2.01,2.01,0,1,0-2.01,2.01A2.01,2.01,0,0,0,4839.01,1651.34Zm0-9.59a2.01,2.01,0,1,0-2.01,2A2.01,2.01,0,0,0,4839.01,1641.75Zm0,105.94a2.01,2.01,0,1,0-2.01,2A2.01,2.01,0,0,0,4839.01,1747.69Zm0-9.6a2.01,2.01,0,1,0-2.01,2.01A2.01,2.01,0,0,0,4839.01,1738.09Zm0-9.59a2.01,2.01,0,1,0-2.01,2.01A2.01,2.01,0,0,0,4839.01,1728.5Zm0-9.6a2.01,2.01,0,1,0-2.01,2.01A2,2,0,0,0,4839.01,1718.9Zm0-9.59a2.01,2.01,0,1,0-2.01,2.01A2.01,2.01,0,0,0,4839.01,1709.31Zm0-9.6a2.01,2.01,0,1,0-2.01,2.01A2.008,2.008,0,0,0,4839.01,1699.71Zm0,105.94a2.01,2.01,0,1,0-2.01,2.01A2.008,2.008,0,0,0,4839.01,1805.65Zm0-9.59a2.01,2.01,0,1,0-2.01,2.01A2.01,2.01,0,0,0,4839.01,1796.06Zm0-9.59a2.01,2.01,0,1,0-2.01,2A2.01,2.01,0,0,0,4839.01,1786.47Zm0-9.6a2.01,2.01,0,1,0-2.01,2.01A2.01,2.01,0,0,0,4839.01,1776.87Zm0-9.59a2.01,2.01,0,1,0-2.01,2A2.01,2.01,0,0,0,4839.01,1767.28Zm0-9.6a2.01,2.01,0,1,0-2.01,2.01A2,2,0,0,0,4839.01,1757.68Zm0,86.75a2.01,2.01,0,1,0-2.01,2.01A2.008,2.008,0,0,0,4839.01,1844.43Zm0-9.59a2.01,2.01,0,1,0-2.01,2.01A2.01,2.01,0,0,0,4839.01,1834.84Zm0-9.59a2.01,2.01,0,1,0-2.01,2A2.01,2.01,0,0,0,4839.01,1825.25Zm0-9.6a2.01,2.01,0,1,0-2.01,2.01A2.01,2.01,0,0,0,4839.01,1815.65Z" transform="translate(-4835 -1176)"/>
</svg>
